<?xml version="1.0" encoding="iso-8859-1"?>
<!-- Generator: Adobe Illustrator 24.1.2, SVG Export Plug-In . SVG Version: 6.00 Build 0)  -->
<svg version="1.1" baseProfile="basic" id="&#x421;&#x43B;&#x43E;&#x439;_1"
	 xmlns="http://www.w3.org/2000/svg" xmlns:xlink="http://www.w3.org/1999/xlink" x="0px" y="0px" viewBox="0 0 48 48"
	 xml:space="preserve">
<linearGradient id="SVGID_1_" gradientUnits="userSpaceOnUse" x1="-357.996" y1="-2.256" x2="-326.9799" y2="28.7588" gradientTransform="matrix(1 0 0 1 364.481 8.739)">
	<stop  offset="0" style="stop-color:#FF975F"/>
	<stop  offset="1" style="stop-color:#FF7930"/>
</linearGradient>
<path marker-end="none" marker-start="none" style="fill:url(#SVGID_1_);" d="M6,9.446v29.105c0,1.901,1.544,3.445,3.445,3.445
	h29.111c1.901,0,3.445-1.544,3.445-3.445V9.446c0-1.901-1.544-3.445-3.445-3.445H9.446C7.544,6.001,6,7.545,6,9.446z"/>
<path marker-end="none" marker-start="none" style="fill-rule:evenodd;clip-rule:evenodd;fill:#FFFFFF;" d="M13.001,29.999
	l-0.001-12c0-3.312,2.689-6,6.001-6h5.999c3.312,0,6.001,2.688,6.001,6l-0.001,3c0,1.104,0.897,2.001,2.001,2.001s2,0.895,2,1.999
	c0,0.731,0.001,3.789,0.001,5c0,3.312-2.689,6-6.001,6h-9.999C15.69,35.999,13.001,33.311,13.001,29.999z M29.001,27.999
	c0-1.103-0.897-2-2-2h-7c-1.104,0-2,0.897-2,2c0,1.104,0.896,2,2,2h7C28.103,29.999,29.001,29.103,29.001,27.999z M27.013,18.999
	c0-1.103-0.897-2-2-2h-5.024c-1.104,0-2,0.897-2,2c0,1.104,0.896,2,2,2h5.024C26.115,20.999,27.013,20.103,27.013,18.999z"/>
</svg>