<?xml version="1.0" encoding="iso-8859-1"?>
<!-- Generator: Adobe Illustrator 24.1.2, SVG Export Plug-In . SVG Version: 6.00 Build 0)  -->
<svg version="1.1" baseProfile="basic" id="&#x421;&#x43B;&#x43E;&#x439;_1"
	 xmlns="http://www.w3.org/2000/svg" xmlns:xlink="http://www.w3.org/1999/xlink" x="0px" y="0px" viewBox="0 0 48 48"
	 xml:space="preserve">
<linearGradient id="SVGID_1_" gradientUnits="userSpaceOnUse" x1="-53.9278" y1="-0.0708" x2="-40.393" y2="13.464" gradientTransform="matrix(1 0 0 1 67.869 24.112)">
	<stop  offset="0" style="stop-color:#33C481"/>
	<stop  offset="1" style="stop-color:#21A366"/>
</linearGradient>
<path marker-end="none" marker-start="none" style="fill:url(#SVGID_1_);" d="M17.626,43.827l-6.727-6.727l5.101-8.101l9.5-6.5
	l7.5,4.5l2.059,5.06L23.291,43.827C21.729,45.391,19.19,45.391,17.626,43.827z"/>
<linearGradient id="SVGID_2_" gradientUnits="userSpaceOnUse" x1="-55.1712" y1="-1.8281" x2="-43.6617" y2="9.6814" gradientTransform="matrix(1 0 0 1 63.361 19.618)">
	<stop  offset="0" style="stop-color:#FFD647"/>
	<stop  offset="1" style="stop-color:#F5BF00"/>
</linearGradient>
<path marker-end="none" marker-start="none" style="fill:url(#SVGID_2_);" d="M10.899,37.101l-6.727-6.727
	c-1.564-1.564-1.564-4.103,0-5.665l11.768-11.768l6.06,2.059l3.5,7.5L10.899,37.101z"/>
<linearGradient id="SVGID_3_" gradientUnits="userSpaceOnUse" x1="-47.0724" y1="-10.1837" x2="-35.6016" y2="1.2871" gradientTransform="matrix(1 0 0 1 70.286 11.922)">
	<stop  offset="0" style="stop-color:#F44F5B"/>
	<stop  offset="1" style="stop-color:#E5202E"/>
</linearGradient>
<path marker-end="none" marker-start="none" style="fill:url(#SVGID_3_);" d="M25.501,22.499l-9.56-9.559l8.768-8.768
	c0.78-0.781,1.807-1.172,2.832-1.172H41.4l0.129-0.001c0.887,0.008,1.771,0.348,2.447,1.025l-6.975,11.975L25.501,22.499z"/>
<linearGradient id="SVGID_4_" gradientUnits="userSpaceOnUse" x1="-54.7555" y1="-18.239" x2="-2.7551" y2="33.7614" gradientTransform="matrix(1 0 0 1 46.493 -11.499)">
	<stop  offset="0" style="stop-color:#FFFFFF"/>
	<stop  offset="1" style="stop-color:#1899E2"/>
</linearGradient>
<path marker-end="none" marker-start="none" style="fill-rule:evenodd;clip-rule:evenodd;fill:url(#SVGID_4_);" d="M35.059,32.059
	l-9.559-9.56l2.5-5.5l3.36-0.36L43.976,4.025C44.489,4.538,44.81,5.171,45,6.47l0.001,0.137L45,20.459
	c0,1.025-0.391,2.052-1.172,2.832L35.059,32.059z"/>
<linearGradient id="SVGID_5_" gradientUnits="userSpaceOnUse" x1="-64.4932" y1="-8.5012" x2="-12.4929" y2="43.499" gradientTransform="matrix(1 0 0 1 46.493 -11.499)">
	<stop  offset="0" style="stop-color:#FFFFFF"/>
	<stop  offset="1" style="stop-color:#1899E2"/>
</linearGradient>
<path marker-end="none" marker-start="none" style="fill-rule:evenodd;clip-rule:evenodd;fill:url(#SVGID_5_);" d="M29.935,27.935
	c2.728-2.729,2.728-7.161,0-9.889c-2.728-2.728-7.16-2.728-9.888,0.001s-2.728,7.161,0,9.889
	C22.775,30.665,27.207,30.665,29.935,27.935z"/>
<path marker-end="none" marker-start="none" style="fill-rule:evenodd;clip-rule:evenodd;fill:#FFFFFF;" d="M18.643,29.358
	c-3.509-3.509-3.509-9.207,0-12.717c3.508-3.511,9.207-3.511,12.716,0l-2.828,2.828c-1.947-1.948-5.112-1.948-7.06,0
	c-1.947,1.948-1.947,5.115,0,7.061c1.947,1.947,5.112,1.947,7.06-0.001c1.492-1.492,1.84-3.701,1.044-5.529h4.192
	c0.66,2.913-0.143,6.091-2.408,8.357C27.851,32.867,22.153,32.867,18.643,29.358z"/>
<path marker-end="none" marker-start="none" style="fill-rule:evenodd;clip-rule:evenodd;fill:#FFFFFF;" d="M24.999,21.001v3.999
	h5.001l2-2l-2-1.999H24.999z"/>
<path marker-end="none" marker-start="none" style="fill-rule:evenodd;clip-rule:evenodd;fill:#FFFFFF;" d="M39.124,13.121
	c1.171-1.171,1.171-3.072,0-4.244c-1.172-1.171-3.072-1.172-4.243-0.001c-1.171,1.171-1.171,3.072,0,4.244
	C36.053,14.29,37.953,14.291,39.124,13.121z"/>
</svg>