<?xml version="1.0" encoding="iso-8859-1"?><!-- Generator: Adobe Illustrator 21.1.0, SVG Export Plug-In . SVG Version: 6.00 Build 0)  --><svg xmlns="http://www.w3.org/2000/svg" xmlns:xlink="http://www.w3.org/1999/xlink" viewBox="0 0 50 50" width="500px" height="500px"><path style="fill:none;stroke:#000000;stroke-width:2;stroke-linejoin:round;stroke-miterlimit:10;" d="M45,35L35,45H6.818C5.818,45,5,44.142,5,43.093V5l4,3l4-3l4,3l4-3l4,3l4-3l4,3l4-3l4,3l4-3V35z"/><rect x="9" y="12" style="fill:none;stroke:#000000;stroke-width:2;stroke-miterlimit:10;" width="32" height="4"/><line style="fill:none;stroke:#000000;stroke-width:2;stroke-miterlimit:10;" x1="26" y1="22" x2="41" y2="22"/><line style="fill:none;stroke:#000000;stroke-width:2;stroke-miterlimit:10;" x1="26" y1="26" x2="41" y2="26"/><line style="fill:none;stroke:#000000;stroke-width:2;stroke-miterlimit:10;" x1="26" y1="30" x2="41" y2="30"/><line style="fill:none;stroke:#000000;stroke-width:2;stroke-miterlimit:10;" x1="8" y1="38" x2="23" y2="38"/><line style="fill:none;stroke:#000000;stroke-width:2;stroke-miterlimit:10;" x1="26" y1="35" x2="32" y2="35"/><line style="fill:none;stroke:#000000;stroke-width:2;stroke-miterlimit:10;" x1="26" y1="39" x2="32" y2="39"/><polygon points="14.3,29.7 15.5,28.5 15.5,26.2 19,26.2 17.8,25 14.3,25 13.2,26.2 14.3,26.2 "/><polygon points="12,26.2 12,29.7 13.2,30.8 17.8,30.8 19,29.7 19,28.5 19,27.3 17.8,27.3 16.7,27.3 15.5,28.5 17.8,28.5 17.8,29.7 14.3,29.7 13.2,29.7 13.2,26.2 13.2,25 "/><rect x="9" y="22" style="fill:none;stroke:#000000;stroke-width:2;stroke-miterlimit:10;" width="13" height="12"/><polyline style="fill:none;stroke:#000000;stroke-width:2;stroke-miterlimit:10;" points="35,45 35,35 45,35 "/></svg>