<?xml version="1.0" encoding="iso-8859-1"?>
<!-- Generator: Adobe Illustrator 24.1.2, SVG Export Plug-In . SVG Version: 6.00 Build 0)  -->
<svg version="1.1" baseProfile="basic" id="&#x421;&#x43B;&#x43E;&#x439;_1"
	 xmlns="http://www.w3.org/2000/svg" xmlns:xlink="http://www.w3.org/1999/xlink" x="0px" y="0px" viewBox="0 0 48 48"
	 xml:space="preserve">
<linearGradient id="SVGID_1_" gradientUnits="userSpaceOnUse" x1="-137.245" y1="-156.4998" x2="-110.7409" y2="-129.9957" gradientTransform="matrix(1 0 0 1 134.615 138.123)">
	<stop  offset="0" style="stop-color:#FFFFFF"/>
	<stop  offset="1" style="stop-color:#1359BF"/>
</linearGradient>
<path marker-end="none" marker-start="none" style="fill-rule:evenodd;clip-rule:evenodd;fill:url(#SVGID_1_);" d="M17.998,12.006
	V4.493c0-0.827,0.672-1.5,1.5-1.5h8.997c0.827,0,1.5,0.673,1.5,1.5v7.513c0,0.828-0.673,1.5-1.5,1.5c-0.828,0-1.5-0.672-1.5-1.5
	V5.993h-5.997v6.013c0,0.828-0.673,1.5-1.5,1.5C18.67,13.506,17.998,12.834,17.998,12.006z"/>
<linearGradient id="SVGID_2_" gradientUnits="userSpaceOnUse" x1="-124.7091" y1="-158.0746" x2="-112.937" y2="-146.3026" gradientTransform="matrix(1 0 0 1 140.641 164.98)">
	<stop  offset="0" style="stop-color:#F44F5B"/>
	<stop  offset="1" style="stop-color:#E5202E"/>
</linearGradient>
<path marker-end="none" marker-start="none" style="fill:url(#SVGID_2_);" d="M24.001,26.001l-9.999-6.001l-2.804-6.803
	c0.464-1.28,1.692-2.197,3.132-2.197h19.343c1.44,0,2.668,0.917,3.131,2.199l-2.801,6.801L24.001,26.001z"/>
<linearGradient id="SVGID_3_" gradientUnits="userSpaceOnUse" x1="-133.2411" y1="-139.5018" x2="-133.2411" y2="-166.5017" gradientTransform="matrix(1 0 0 1 150.743 207.501)">
	<stop  offset="0" style="stop-color:#FFFFFF"/>
	<stop  offset="1" style="stop-color:#1359BF"/>
</linearGradient>
<path marker-end="none" marker-start="none" style="fill-rule:evenodd;clip-rule:evenodd;fill:url(#SVGID_3_);" d="M14.002,41.502
	v-4.015c0-1.931,1.568-3.5,3.5-3.5c1.931,0,3.5,1.569,3.5,3.5v4.015c0,1.932-1.569,3.5-3.5,3.5
	C15.57,45.002,14.002,43.434,14.002,41.502z"/>
<linearGradient id="SVGID_4_" gradientUnits="userSpaceOnUse" x1="-120.2409" y1="-139.5018" x2="-120.2409" y2="-166.5017" gradientTransform="matrix(1 0 0 1 150.743 207.501)">
	<stop  offset="0" style="stop-color:#FFFFFF"/>
	<stop  offset="1" style="stop-color:#1359BF"/>
</linearGradient>
<path marker-end="none" marker-start="none" style="fill-rule:evenodd;clip-rule:evenodd;fill:url(#SVGID_4_);" d="M27.002,41.502
	v-4.015c0-1.931,1.568-3.5,3.5-3.5c1.931,0,3.5,1.569,3.5,3.5v4.015c0,1.932-1.569,3.5-3.5,3.5
	C28.57,45.002,27.002,43.434,27.002,41.502z"/>
<linearGradient id="SVGID_5_" gradientUnits="userSpaceOnUse" x1="-131.3906" y1="-147.6149" x2="-117.8465" y2="-134.0708" gradientTransform="matrix(1 0 0 1 143.854 173.102)">
	<stop  offset="0" style="stop-color:#33C481"/>
	<stop  offset="1" style="stop-color:#21A366"/>
</linearGradient>
<path marker-end="none" marker-start="none" style="fill:url(#SVGID_5_);" d="M11.198,38.803l3.804-6.804l8.999-5.999l9.001,4.999
	l3.803,7.804c-0.464,1.281-1.692,2.197-3.132,2.197H14.33C12.889,41.001,11.661,40.085,11.198,38.803z"/>
<linearGradient id="SVGID_6_" gradientUnits="userSpaceOnUse" x1="-132.0544" y1="-148.8073" x2="-122.8144" y2="-139.5673" gradientTransform="matrix(1 0 0 1 139.916 171.471)">
	<stop  offset="0" style="stop-color:#FFD647"/>
	<stop  offset="1" style="stop-color:#F5BF00"/>
</linearGradient>
<path marker-end="none" marker-start="none" style="fill:url(#SVGID_6_);" d="M11.001,37.671V14.329
	c0-0.397,0.069-0.779,0.197-1.132l12.803,12.804L11.198,38.803C11.07,38.45,11.001,38.069,11.001,37.671z"/>
<linearGradient id="SVGID_7_" gradientUnits="userSpaceOnUse" x1="-125.5057" y1="-164.5035" x2="-89.8349" y2="-128.8327" gradientTransform="matrix(1 0 0 1 127.875 156.07)">
	<stop  offset="0" style="stop-color:#FFFFFF"/>
	<stop  offset="1" style="stop-color:#1899E2"/>
</linearGradient>
<path marker-end="none" marker-start="none" style="fill-rule:evenodd;clip-rule:evenodd;fill:url(#SVGID_7_);" d="M36.805,38.803
	L24.001,26.001l12.803-12.803c0.128,0.353,0.199,0.735,0.199,1.131v23.343C37.002,38.069,36.931,38.45,36.805,38.803z"/>
<linearGradient id="SVGID_8_" gradientUnits="userSpaceOnUse" x1="-131.9058" y1="-158.1035" x2="-96.235" y2="-122.4326" gradientTransform="matrix(1 0 0 1 127.875 156.07)">
	<stop  offset="0" style="stop-color:#FFFFFF"/>
	<stop  offset="1" style="stop-color:#1899E2"/>
</linearGradient>
<path marker-end="none" marker-start="none" style="fill-rule:evenodd;clip-rule:evenodd;fill:url(#SVGID_8_);" d="M24.002,19.999
	c3.311,0,6,2.689,6,6s-2.689,6-6,6s-6-2.689-6-6S20.691,19.999,24.002,19.999z"/>
<path marker-end="none" marker-start="none" style="fill-rule:evenodd;clip-rule:evenodd;fill:#FFFFFF;" d="M15.998,25.999
	c0-4.417,3.585-8.004,8.004-8.004c2.208,0,4.209,0.897,5.657,2.347l-2.121,2.121c-0.905-0.907-2.156-1.468-3.536-1.468
	c-2.761,0-5.004,2.244-5.004,5.004c0,2.761,2.243,5.004,5.004,5.004c2.76,0,5.004-2.243,5.004-5.004c0-0.711-0.149-1.388-0.419-2
	h3.165c0.165,0.64,0.253,1.311,0.253,2c0,4.419-3.587,8.004-8.004,8.004C19.583,34.003,15.998,30.418,15.998,25.999z"/>
<path marker-end="none" marker-start="none" style="fill-rule:evenodd;clip-rule:evenodd;fill:#FFFFFF;" d="M24.001,23.999v3.001
	h5.001l1-1.001l-1-2H24.001z"/>
</svg>